<svg width="133" height="132" viewBox="0 0 133 132" fill="none" xmlns="http://www.w3.org/2000/svg">
<path d="M22.168 22C22.168 19.0826 23.3357 16.2847 25.4144 14.2218C27.493 12.1589 30.3123 11 33.2519 11H77.5878C79.0575 11.0003 80.4669 11.58 81.506 12.6115L109.216 40.1115C110.255 41.1427 110.839 42.5414 110.84 44V110C110.84 112.917 109.672 115.715 107.593 117.778C105.515 119.841 102.695 121 99.7558 121H33.2519C30.3123 121 27.493 119.841 25.4144 117.778C23.3357 115.715 22.168 112.917 22.168 110V22ZM97.4614 44L77.5878 24.277V44H97.4614ZM66.5038 22H33.2519V110H99.7558V55H72.0458C70.576 55 69.1664 54.4205 68.1271 53.3891C67.0877 52.3576 66.5038 50.9587 66.5038 49.5V22ZM44.3359 71.5C44.3359 70.0413 44.9198 68.6424 45.9591 67.6109C46.9984 66.5795 48.4081 66 49.8779 66H83.1298C84.5996 66 86.0093 66.5795 87.0486 67.6109C88.0879 68.6424 88.6718 70.0413 88.6718 71.5C88.6718 72.9587 88.0879 74.3576 87.0486 75.3891C86.0093 76.4205 84.5996 77 83.1298 77H49.8779C48.4081 77 46.9984 76.4205 45.9591 75.3891C44.9198 74.3576 44.3359 72.9587 44.3359 71.5ZM44.3359 93.5C44.3359 92.0413 44.9198 90.6424 45.9591 89.6109C46.9984 88.5795 48.4081 88 49.8779 88H83.1298C84.5996 88 86.0093 88.5795 87.0486 89.6109C88.0879 90.6424 88.6718 92.0413 88.6718 93.5C88.6718 94.9587 88.0879 96.3576 87.0486 97.3891C86.0093 98.4205 84.5996 99 83.1298 99H49.8779C48.4081 99 46.9984 98.4205 45.9591 97.3891C44.9198 96.3576 44.3359 94.9587 44.3359 93.5Z" fill="#6092D0"/>
</svg>
